# xmcd CD database file
#
# Track frame offsets:
#	150
#	22221
#	35516
#	47683
#	64881
#	75486
#	85999
#	96013
#	109060
#	126728
#	134120
#	146918
#	164929
#	178767
#	195801
#	209843
#	223669
#	235140
#	245467
#	258802
#	271915
#	286174
#	302122
#	318094
#
# Disc length: 4572 seconds
#
# Revision: 0
# Processed by: cddbd v1.5.1PL0 Copyright (c) Steve Scherf et al.
# Submitted via: Feurio! 1.68 - http://www.feurio.com
#
DISCID=7211da18
DTITLE=Pcfhremix 05.05 (Dylan) - Mayflowers
DYEAR=1900
DGENRE=blues
TTITLE0=Matt Pond PA - Summer is Coming
TTITLE1=Daddy Maxfield - Rave 'n Rock
TTITLE2=Shirley Ellis - The Clapping Song
TTITLE3=Gorillaz - Dirty Harry
TTITLE4=Howlin' Wolf - Evil
TTITLE5=Al Green - I Wan't to Hold Your Hand
TTITLE6=Michael Viner's Incredible Bongo Band - Bongolia
TTITLE7=Van Halen - Outta Love Again
TTITLE8=Ocean Colour Scene - Hundred Mile High City
TTITLE9=Wire - Option R
TTITLE10=The Futureheads - Meantime
TTITLE11=XTC - Scissor Man
TTITLE12=Can - Vitamin C
TTITLE13=CCC: Elvis vs. The Wailers - Crying in the Chapel
TTITLE14=The Hollies - King Midas in Reverse
TTITLE15=CCC: Dylan vs. The Beatles - Rain Babe
TTITLE16=Ike and Tina Turner - Cussin' Cryin' and Carryin' On
TTITLE17=Peggy Lee - Sneakin' Up On You
TTITLE18=Sly and the Family Stone - Crossword Puzzle
TTITLE19=Lou Reed - Sally Can't Dance
TTITLE20=The Move - Lighting Never Strikes Twice
TTITLE21=Ambulance Ltd - Heavy Lifting
TTITLE22=Radiohead - I Am Citizen Insane
TTITLE23=J-Live - Epilogue
EXTD=
EXTT0=
EXTT1=
EXTT2=
EXTT3=
EXTT4=
EXTT5=
EXTT6=
EXTT7=
EXTT8=
EXTT9=
EXTT10=
EXTT11=
EXTT12=
EXTT13=
EXTT14=
EXTT15=
EXTT16=
EXTT17=
EXTT18=
EXTT19=
EXTT20=
EXTT21=
EXTT22=
EXTT23=
PLAYORDER=
